<mxfile host="app.diagrams.net" agent="Mozilla/5.0 (Windows NT 10.0; Win64; x64) AppleWebKit/537.36 (KHTML, like Gecko) Chrome/140.0.0.0 Safari/537.36 Edg/140.0.0.0" version="28.2.3">
  <diagram name="Trang-1" id="bBMI8meG3aKrOYnSZImK">
    <mxGraphModel dx="632" dy="566" grid="1" gridSize="10" guides="1" tooltips="1" connect="1" arrows="1" fold="1" page="1" pageScale="1" pageWidth="827" pageHeight="1169" math="0" shadow="0">
      <root>
        <mxCell id="0" />
        <mxCell id="1" parent="0" />
        <mxCell id="UjbfYA5SEFoiXBk5RmYJ-7" value="" style="edgeStyle=orthogonalEdgeStyle;rounded=0;orthogonalLoop=1;jettySize=auto;html=1;" edge="1" parent="1" source="UjbfYA5SEFoiXBk5RmYJ-1" target="UjbfYA5SEFoiXBk5RmYJ-2">
          <mxGeometry relative="1" as="geometry" />
        </mxCell>
        <mxCell id="UjbfYA5SEFoiXBk5RmYJ-10" style="edgeStyle=orthogonalEdgeStyle;rounded=0;orthogonalLoop=1;jettySize=auto;html=1;exitX=0.5;exitY=0;exitDx=0;exitDy=0;" edge="1" parent="1" source="UjbfYA5SEFoiXBk5RmYJ-1">
          <mxGeometry relative="1" as="geometry">
            <mxPoint x="320" y="20" as="targetPoint" />
          </mxGeometry>
        </mxCell>
        <mxCell id="UjbfYA5SEFoiXBk5RmYJ-1" value="0" style="ellipse;whiteSpace=wrap;html=1;aspect=fixed;" vertex="1" parent="1">
          <mxGeometry x="280" y="120" width="80" height="80" as="geometry" />
        </mxCell>
        <mxCell id="UjbfYA5SEFoiXBk5RmYJ-19" style="edgeStyle=orthogonalEdgeStyle;rounded=0;orthogonalLoop=1;jettySize=auto;html=1;entryX=0.5;entryY=0;entryDx=0;entryDy=0;" edge="1" parent="1" source="UjbfYA5SEFoiXBk5RmYJ-2" target="UjbfYA5SEFoiXBk5RmYJ-3">
          <mxGeometry relative="1" as="geometry" />
        </mxCell>
        <mxCell id="UjbfYA5SEFoiXBk5RmYJ-20" style="edgeStyle=orthogonalEdgeStyle;rounded=0;orthogonalLoop=1;jettySize=auto;html=1;entryX=0.5;entryY=0;entryDx=0;entryDy=0;" edge="1" parent="1" source="UjbfYA5SEFoiXBk5RmYJ-2" target="UjbfYA5SEFoiXBk5RmYJ-5">
          <mxGeometry relative="1" as="geometry" />
        </mxCell>
        <mxCell id="UjbfYA5SEFoiXBk5RmYJ-2" value="1" style="ellipse;whiteSpace=wrap;html=1;aspect=fixed;" vertex="1" parent="1">
          <mxGeometry x="280" y="250" width="80" height="80" as="geometry" />
        </mxCell>
        <mxCell id="UjbfYA5SEFoiXBk5RmYJ-21" style="edgeStyle=orthogonalEdgeStyle;rounded=0;orthogonalLoop=1;jettySize=auto;html=1;exitX=1;exitY=0.5;exitDx=0;exitDy=0;entryX=0;entryY=0.5;entryDx=0;entryDy=0;" edge="1" parent="1" source="UjbfYA5SEFoiXBk5RmYJ-3" target="UjbfYA5SEFoiXBk5RmYJ-5">
          <mxGeometry relative="1" as="geometry">
            <Array as="points">
              <mxPoint x="280" y="400" />
              <mxPoint x="280" y="520" />
            </Array>
          </mxGeometry>
        </mxCell>
        <mxCell id="UjbfYA5SEFoiXBk5RmYJ-3" value="2" style="ellipse;whiteSpace=wrap;html=1;aspect=fixed;" vertex="1" parent="1">
          <mxGeometry x="160" y="360" width="80" height="80" as="geometry" />
        </mxCell>
        <mxCell id="UjbfYA5SEFoiXBk5RmYJ-35" style="edgeStyle=orthogonalEdgeStyle;rounded=0;orthogonalLoop=1;jettySize=auto;html=1;entryX=0.5;entryY=0;entryDx=0;entryDy=0;" edge="1" parent="1" source="UjbfYA5SEFoiXBk5RmYJ-5" target="UjbfYA5SEFoiXBk5RmYJ-33">
          <mxGeometry relative="1" as="geometry">
            <Array as="points">
              <mxPoint x="485" y="520" />
            </Array>
          </mxGeometry>
        </mxCell>
        <mxCell id="UjbfYA5SEFoiXBk5RmYJ-5" value="3" style="ellipse;whiteSpace=wrap;html=1;aspect=fixed;" vertex="1" parent="1">
          <mxGeometry x="365" y="480" width="80" height="80" as="geometry" />
        </mxCell>
        <mxCell id="UjbfYA5SEFoiXBk5RmYJ-34" style="edgeStyle=orthogonalEdgeStyle;rounded=0;orthogonalLoop=1;jettySize=auto;html=1;" edge="1" parent="1" source="UjbfYA5SEFoiXBk5RmYJ-11" target="UjbfYA5SEFoiXBk5RmYJ-33">
          <mxGeometry relative="1" as="geometry">
            <Array as="points">
              <mxPoint x="200" y="710" />
              <mxPoint x="485" y="710" />
            </Array>
          </mxGeometry>
        </mxCell>
        <mxCell id="UjbfYA5SEFoiXBk5RmYJ-11" value="4" style="ellipse;whiteSpace=wrap;html=1;aspect=fixed;" vertex="1" parent="1">
          <mxGeometry x="160" y="585" width="80" height="80" as="geometry" />
        </mxCell>
        <mxCell id="UjbfYA5SEFoiXBk5RmYJ-18" value="Code1(a,b,x)" style="text;html=1;align=center;verticalAlign=middle;resizable=0;points=[];autosize=1;strokeColor=none;fillColor=none;" vertex="1" parent="1">
          <mxGeometry x="360" y="145" width="90" height="30" as="geometry" />
        </mxCell>
        <mxCell id="UjbfYA5SEFoiXBk5RmYJ-22" style="edgeStyle=orthogonalEdgeStyle;rounded=0;orthogonalLoop=1;jettySize=auto;html=1;entryX=1;entryY=0.688;entryDx=0;entryDy=0;entryPerimeter=0;" edge="1" parent="1" source="UjbfYA5SEFoiXBk5RmYJ-5" target="UjbfYA5SEFoiXBk5RmYJ-11">
          <mxGeometry relative="1" as="geometry">
            <Array as="points">
              <mxPoint x="405" y="640" />
            </Array>
          </mxGeometry>
        </mxCell>
        <mxCell id="UjbfYA5SEFoiXBk5RmYJ-24" value="If" style="text;html=1;align=center;verticalAlign=middle;whiteSpace=wrap;rounded=0;" vertex="1" parent="1">
          <mxGeometry x="354" y="250" width="60" height="30" as="geometry" />
        </mxCell>
        <mxCell id="UjbfYA5SEFoiXBk5RmYJ-25" value="(a &amp;gt; 1) &amp;amp;&amp;amp; (b == 0)" style="text;html=1;align=center;verticalAlign=middle;whiteSpace=wrap;rounded=0;" vertex="1" parent="1">
          <mxGeometry x="200" y="260" width="60" height="30" as="geometry" />
        </mxCell>
        <mxCell id="UjbfYA5SEFoiXBk5RmYJ-26" value="(a == 2) || (x &amp;gt; 1)" style="text;whiteSpace=wrap;html=1;" vertex="1" parent="1">
          <mxGeometry x="420" y="360" width="120" height="40" as="geometry" />
        </mxCell>
        <mxCell id="UjbfYA5SEFoiXBk5RmYJ-29" value=" x = x/a" style="text;html=1;align=center;verticalAlign=middle;whiteSpace=wrap;rounded=0;" vertex="1" parent="1">
          <mxGeometry x="80" y="385" width="60" height="30" as="geometry" />
        </mxCell>
        <mxCell id="UjbfYA5SEFoiXBk5RmYJ-30" value="If" style="text;html=1;align=center;verticalAlign=middle;whiteSpace=wrap;rounded=0;" vertex="1" parent="1">
          <mxGeometry x="430" y="480" width="60" height="30" as="geometry" />
        </mxCell>
        <mxCell id="UjbfYA5SEFoiXBk5RmYJ-31" value="(a == 2) || (x &amp;gt; 1)" style="text;whiteSpace=wrap;html=1;" vertex="1" parent="1">
          <mxGeometry x="280" y="610" width="120" height="40" as="geometry" />
        </mxCell>
        <mxCell id="UjbfYA5SEFoiXBk5RmYJ-32" value="x=x+1" style="text;whiteSpace=wrap;html=1;" vertex="1" parent="1">
          <mxGeometry x="120" y="610" width="70" height="40" as="geometry" />
        </mxCell>
        <mxCell id="UjbfYA5SEFoiXBk5RmYJ-33" value="5" style="ellipse;whiteSpace=wrap;html=1;aspect=fixed;" vertex="1" parent="1">
          <mxGeometry x="445" y="720" width="80" height="80" as="geometry" />
        </mxCell>
        <mxCell id="UjbfYA5SEFoiXBk5RmYJ-36" value="a!=2 &amp;amp;&amp;amp; x&amp;lt;=1" style="text;html=1;align=center;verticalAlign=middle;whiteSpace=wrap;rounded=0;" vertex="1" parent="1">
          <mxGeometry x="490" y="620" width="60" height="30" as="geometry" />
        </mxCell>
      </root>
    </mxGraphModel>
  </diagram>
</mxfile>
